<svg xmlns="http://www.w3.org/2000/svg" width="800" height="800" fill="none" viewBox="0 0 24 24">
    <path fill="inherit" d="M12.5535 16.5061A.74992.74992 0 0 1 12 16.75a.74992.74992 0 0 1-.5535-.2439l-4.00002-4.375c-.2795-.3057-.25826-.7801.04744-1.0596.30571-.2795.7801-.2583 1.0596.0474L11.25 14.0682V3c0-.41421.3358-.75.75-.75s.75.33579.75.75v11.0682l2.6965-2.9493c.2795-.3057.7539-.3269 1.0596-.0474.3057.2795.3269.7539.0474 1.0596l-4 4.375Z"/>
    <path fill="inherit" d="M3.75 15c0-.4142-.33578-.75-.75-.75-.41421 0-.75.3358-.75.75v.0549c-.00002 1.3676-.00004 2.4699.11652 3.3369.12102.9001.37991 1.6579.98183 2.2598.60192.602 1.35979.8609 2.2599.9819.86697.1165 1.96929.1165 3.33688.1165h6.10977c1.3676 0 2.4699 0 3.3369-.1165.9001-.121 1.6579-.3799 2.2599-.9819.6019-.6019.8608-1.3597.9818-2.2598.1165-.867.1165-1.9693.1165-3.3369V15c0-.4142-.3358-.75-.75-.75s-.75.3358-.75.75c0 1.4354-.0016 2.4365-.1031 3.1919-.0987.7338-.2791 1.1223-.5559 1.3991-.2768.2768-.6653.4572-1.3991.5559-.7554.1015-1.7565.1031-3.1919.1031H9c-1.43541 0-2.43653-.0016-3.19188-.1031-.73377-.0987-1.12235-.2791-1.39911-.5559-.27676-.2768-.45721-.6653-.55586-1.3991C3.75159 17.4365 3.75 16.4354 3.75 15Z"/>
</svg>